<svg width="32" height="32" viewBox="0 0 32 32" fill="none" xmlns="http://www.w3.org/2000/svg">
<path d="M16 0C11.7616 0.0165907 7.70161 1.70763 4.70462 4.70462C1.70763 7.70161 0.0165907 11.7616 0 16C0.00537231 19.6411 1.20728 23.1794 3.42073 26.0705C5.63417 28.9615 8.73644 31.0449 12.25 32V26.707C11.419 26.912 10.5434 26.8345 9.7613 26.4866C8.97924 26.1388 8.33527 25.5404 7.931 24.786C7.567 24.173 6.923 23.508 6.251 23.557L6.086 21.689C6.80426 21.6882 7.50848 21.888 8.11928 22.2659C8.73007 22.6439 9.22317 23.1849 9.543 23.828C9.79139 24.316 10.2228 24.686 10.743 24.857C11.2688 24.9812 11.8206 24.9332 12.317 24.72C12.4568 23.8774 12.839 23.0938 13.417 22.465C9.249 21.843 7.589 19.632 6.929 17.887C6.50483 16.7132 6.38691 15.4507 6.58638 14.2187C6.78586 12.9867 7.29613 11.8259 8.069 10.846C8.09249 10.8199 8.11024 10.7891 8.12109 10.7557C8.13195 10.7223 8.13566 10.6869 8.132 10.652C7.72195 9.30437 7.78798 7.8567 8.319 6.552C9.136 6.794 9.269 6.309 11.87 7.889L12.319 8.159C12.507 8.271 12.448 8.207 12.636 8.193C13.7332 7.89615 14.8634 7.73825 16 7.723C17.1492 7.74041 18.2916 7.90303 19.4 8.207L19.546 8.222C19.533 8.222 19.586 8.213 19.673 8.16C22.921 6.192 22.805 6.836 23.673 6.552C24.1941 7.85909 24.2582 9.30389 23.855 10.652C23.761 10.943 26.671 13.608 25.055 17.887C24.396 19.633 22.735 21.844 18.568 22.465C18.9464 22.8518 19.2448 23.3094 19.4461 23.8117C19.6473 24.3139 19.7476 24.8509 19.741 25.392V32C23.2562 31.0466 26.3605 28.9639 28.5757 26.0727C30.7909 23.1815 31.9941 19.6422 32 16C31.9837 11.7616 30.2927 7.70138 27.2957 4.70433C24.2986 1.70728 20.2384 0.0163292 16 0V0Z" fill="black"/>
</svg>
