<svg width="32" height="32" viewBox="0 0 32 32" fill="none" xmlns="http://www.w3.org/2000/svg">
<path d="M16 0C7.17785 0 0 7.17785 0 16C0 24.8222 7.17785 32 16 32C24.8222 32 32 24.8222 32 16C32 7.17785 24.8222 0 16 0ZM11.8966 4.92308H20.101C23.9471 4.92308 27.0769 8.05171 27.0769 11.8966V20.101C27.0769 23.9471 23.9483 27.0769 20.1034 27.0769H11.899C8.05288 27.0769 4.92308 23.9483 4.92308 20.1034V11.899C4.92308 8.05288 8.05171 4.92308 11.8966 4.92308ZM11.8966 7.38462C9.40925 7.38462 7.38462 9.41042 7.38462 11.899V20.1034C7.38462 22.5908 9.41042 24.6154 11.899 24.6154H20.1034C22.5908 24.6154 24.6154 22.5896 24.6154 20.101V11.8966C24.6154 9.40925 22.5896 7.38462 20.101 7.38462H11.8966ZM21.7452 9.4351C22.1981 9.4351 22.5649 9.80189 22.5649 10.2548C22.5649 10.7077 22.1981 11.0769 21.7452 11.0769C21.2923 11.0769 20.9231 10.7077 20.9231 10.2548C20.9231 9.80189 21.2923 9.4351 21.7452 9.4351ZM16 9.84615C19.3932 9.84615 22.1538 12.6068 22.1538 16C22.1538 19.3932 19.3932 22.1538 16 22.1538C12.6068 22.1538 9.84615 19.3932 9.84615 16C9.84615 12.6068 12.6068 9.84615 16 9.84615ZM16 12.3077C15.0207 12.3077 14.0816 12.6967 13.3891 13.3891C12.6967 14.0816 12.3077 15.0207 12.3077 16C12.3077 16.9793 12.6967 17.9184 13.3891 18.6109C14.0816 19.3033 15.0207 19.6923 16 19.6923C16.9793 19.6923 17.9184 19.3033 18.6109 18.6109C19.3033 17.9184 19.6923 16.9793 19.6923 16C19.6923 15.0207 19.3033 14.0816 18.6109 13.3891C17.9184 12.6967 16.9793 12.3077 16 12.3077V12.3077Z" fill="black"/>
</svg>
