<svg width="32" height="32" viewBox="0 0 32 32" fill="none" xmlns="http://www.w3.org/2000/svg">
<g clip-path="url(#clip0)">
<path d="M17.3466 0.110654C15.5412 0.0784336 13.7759 0.517433 12.2506 1.61426C7.59323 4.53823 6.48123 10.9849 9.36657 16.3013C9.9559 9.85724 14.6146 4.53823 20.7799 3.40919C23.6666 3.07625 25.7666 3.40919 25.7666 3.40919C23.4679 1.54311 20.3519 0.167039 17.3466 0.110654ZM10.3519 1.34979C5.89057 2.81177 1.2319 6.93058 1.82257 11.5824C1.82257 16.8987 7.06923 21.0202 12.2506 22.748C8.1839 18.0291 5.29857 12.1825 7.85723 5.73575C9.0399 3.01046 10.3506 1.34979 10.3506 1.34979H10.3519ZM23.7199 4.37848C20.0012 4.33149 14.7626 6.2016 12.8426 9.79011C18.6826 7.46355 26.1626 7.99653 29.7039 14.3103C31.2146 16.9014 31.8039 18.9608 31.8039 18.9608C32.5266 13.9103 31.3439 7.4649 26.7532 5.07121C26.0306 4.62281 24.9599 4.39459 23.7199 4.37848V4.37848ZM20.3906 9.25848C25.0479 13.976 27.9332 21.6203 23.9319 27.534C22.1612 30.1264 20.5852 31.6541 20.5852 31.6541H20.5879C25.6386 30.3922 30.8186 25.6746 30.8186 20.4241C30.8186 16.9027 27.2132 10.5876 20.3919 9.25848H20.3906ZM0.707902 12.847C-1.06276 17.4988 0.641235 23.3454 4.11857 25.7391C8.7759 29.2618 15.1412 27.5327 19.7986 23.4125C13.4346 24.61 6.4799 23.4125 2.9399 17.6317C1.36523 14.9064 0.706568 12.847 0.706568 12.847H0.707902ZM24.3239 17.1001C22.0266 23.5441 16.8452 28.0656 10.1546 28.3986C7.0719 28.1985 4.90657 27.534 4.90657 27.534C8.1199 31.5212 13.9586 33.1833 18.6159 31.3897C21.7652 30.1277 24.1266 26.6694 24.6506 22.748C24.9786 20.7543 24.5866 19.0923 24.3239 17.1001Z" fill="black"/>
</g>
<defs>
<clipPath id="clip0">
<rect width="32" height="32" fill="white"/>
</clipPath>
</defs>
</svg>
