<svg width="32" height="32" viewBox="0 0 32 32" fill="none" xmlns="http://www.w3.org/2000/svg">
<path fill-rule="evenodd" clip-rule="evenodd" d="M16 0C24.8366 0 32 7.16344 32 16C32 24.8366 24.8366 32 16 32C7.16344 32 0 24.8366 0 16C0 7.16344 7.16344 0 16 0ZM17.789 17.571V28.107V28.111H13.547V17.571H10V13.459H13.547V10.43C13.547 6.91399 15.694 4.99999 18.83 4.99999C19.8888 4.99638 20.9471 5.05046 22 5.16199V8.83599H19.825C18.119 8.83599 17.789 9.64699 17.789 10.836V13.463H21.857L21.327 17.571H17.789Z" fill="black"/>
</svg>
