<svg width="32" height="32" viewBox="0 0 32 32" fill="none" xmlns="http://www.w3.org/2000/svg">
<path opacity="0.05" d="M7.11107 29.3333C6.63957 29.3333 6.18739 29.146 5.85399 28.8127C5.52059 28.4793 5.33329 28.0271 5.33329 27.5556V22.3111C5.32826 21.8909 5.44251 21.4778 5.66278 21.1199C5.88305 20.7619 6.20031 20.4738 6.57773 20.2889L11.672 18.6667L6.57773 17.0445C6.21661 16.9319 5.90098 16.7067 5.67706 16.4019C5.45314 16.097 5.33267 15.7285 5.33329 15.3502V9.53868C5.33267 9.16042 5.45314 8.7919 5.67706 8.48704C5.90098 8.18219 6.21661 7.95701 6.57773 7.84446L24.3555 1.86668C24.6212 1.78312 24.9028 1.76316 25.1777 1.80841C25.4525 1.85366 25.7129 1.96286 25.9378 2.12721C26.1627 2.29155 26.3458 2.50644 26.4724 2.75454C26.599 3.00265 26.6655 3.27703 26.6666 3.55557V9.12446C26.6672 9.50272 26.5468 9.87124 26.3229 10.1761C26.0989 10.481 25.7833 10.7061 25.4222 10.8187L20.328 12.4445L25.4222 14.0667C25.7833 14.1792 26.0989 14.4044 26.3229 14.7093C26.5468 15.0141 26.6672 15.3826 26.6666 15.7609V21.5725C26.6672 21.9507 26.5468 22.3192 26.3229 22.6241C26.0989 22.929 25.7833 23.1541 25.4222 23.2667L7.6444 29.2507C7.47187 29.3052 7.29202 29.3331 7.11107 29.3333V29.3333ZM24.8888 3.55557L7.11107 9.53868V15.3502L17.5351 18.6667L7.11107 22.3111V27.5556L24.8888 21.5716V15.7609L14.4648 12.4445L24.8888 9.12801V3.55557Z" fill="white"/>
<path opacity="0.07" d="M7.11118 28.8888C6.75756 28.8888 6.41842 28.7484 6.16837 28.4983C5.91832 28.2483 5.77784 27.9091 5.77784 27.5555V22.3111C5.77694 22.0277 5.86669 21.7515 6.03398 21.5228C6.20126 21.2941 6.43731 21.1249 6.70762 21.0399L13.137 18.6666L6.70762 16.6222C6.43709 16.5373 6.20086 16.368 6.03354 16.1391C5.86622 15.9102 5.77661 15.6337 5.77784 15.3502V9.53862C5.77661 9.25508 5.86622 8.97861 6.03354 8.7497C6.20086 8.5208 6.43709 8.3515 6.70762 8.26662L24.4854 2.28617C24.6851 2.22275 24.897 2.20729 25.1038 2.24105C25.3106 2.27481 25.5065 2.35683 25.6757 2.48047C25.8448 2.6041 25.9825 2.76587 26.0775 2.95265C26.1724 3.13943 26.2221 3.34597 26.2223 3.5555V9.12439C26.2243 9.40853 26.135 9.68581 25.9677 9.91543C25.8003 10.145 25.5636 10.3149 25.2925 10.3999L18.8632 12.4444L25.2925 14.4888C25.563 14.5737 25.7993 14.743 25.9666 14.9719C26.1339 15.2008 26.2235 15.4773 26.2223 15.7608V21.5724C26.2235 21.8559 26.1339 22.1324 25.9666 22.3613C25.7993 22.5902 25.563 22.7595 25.2925 22.8444L7.51473 28.8284C7.38416 28.8693 7.24802 28.8897 7.11118 28.8888V28.8888ZM24.6223 2.71195L24.7574 3.13506L6.97962 9.1155C6.88971 9.14399 6.81119 9.20034 6.75542 9.2764C6.69965 9.35246 6.66952 9.4443 6.6694 9.53862V15.3502C6.66952 15.4445 6.69965 15.5363 6.75542 15.6124C6.81119 15.6884 6.88971 15.7448 6.97962 15.7733L16.0694 18.6666L6.97696 21.8871C6.8869 21.9156 6.80827 21.9721 6.75249 22.0483C6.69671 22.1246 6.66667 22.2166 6.66673 22.3111V27.5555C6.66725 27.6249 6.684 27.6932 6.71564 27.7549C6.74728 27.8167 6.79294 27.8701 6.84896 27.9111C6.90494 27.953 6.97021 27.9808 7.03923 27.9921C7.10825 28.0033 7.17897 27.9978 7.2454 27.9759L25.0232 21.9919C25.1131 21.9635 25.1916 21.9071 25.2474 21.8311C25.3031 21.755 25.3333 21.6632 25.3334 21.5688V15.7608C25.3333 15.6665 25.3031 15.5747 25.2474 15.4986C25.1916 15.4226 25.1131 15.3662 25.0232 15.3377L15.9307 12.4444L25.0232 9.55106C25.1131 9.52258 25.1916 9.46623 25.2474 9.39016C25.3031 9.3141 25.3333 9.22227 25.3334 9.12795V3.5555C25.3334 3.48562 25.317 3.4167 25.2854 3.35436C25.2539 3.29201 25.208 3.238 25.1516 3.19669C25.0953 3.15538 25.0299 3.12795 24.961 3.11663C24.892 3.1053 24.8214 3.1104 24.7547 3.1315L24.6223 2.71195Z" fill="white"/>
<path fill-rule="evenodd" clip-rule="evenodd" d="M30.2222 0H1.77778C0.795938 0 0 0.795938 0 1.77778V30.2222C0 31.2041 0.795938 32 1.77778 32H30.2222C31.2041 32 32 31.2041 32 30.2222V1.77778C32 0.795938 31.2041 0 30.2222 0ZM25.1555 22.4198L7.37772 28.4038C7.24458 28.4456 7.10345 28.4556 6.96576 28.4327C6.82807 28.4099 6.69768 28.355 6.58516 28.2724C6.47264 28.1899 6.38114 28.082 6.31808 27.9574C6.25502 27.8329 6.22216 27.6953 6.22217 27.5558V22.3113C6.22253 22.1225 6.28304 21.9386 6.39492 21.7865C6.5068 21.6343 6.66423 21.5217 6.84439 21.4651L14.8901 18.7569L6.84439 16.1973C6.66409 16.1406 6.50655 16.0279 6.39466 15.8756C6.28277 15.7233 6.22235 15.5392 6.22217 15.3502V9.53868C6.22235 9.34966 6.28277 9.16563 6.39466 9.0133C6.50655 8.86097 6.66409 8.74827 6.84439 8.69156L24.6222 2.71201C24.755 2.67025 24.8957 2.66025 25.033 2.68283C25.1704 2.70541 25.3005 2.75994 25.4129 2.84201C25.5254 2.92408 25.617 3.0314 25.6803 3.15534C25.7437 3.27928 25.777 3.41637 25.7777 3.55556V9.12801C25.7775 9.31702 25.7171 9.50105 25.6052 9.65338C25.4933 9.80572 25.3358 9.91842 25.1555 9.97512L17.3964 12.4445L25.1555 14.9138C25.3358 14.9705 25.4933 15.0832 25.6052 15.2355C25.7171 15.3879 25.7775 15.5719 25.7777 15.7609V16.327C25.7777 16.3274 25.7777 16.3278 25.7777 16.3282L25.7777 21.2996C25.7777 21.2996 25.7777 21.2996 25.7777 21.2996C25.7822 21.3863 25.7822 21.4731 25.7777 21.5597V21.5726C25.7777 21.627 25.7726 21.681 25.7628 21.7339C25.7611 21.7483 25.7592 21.7626 25.7573 21.7769C25.744 21.8257 25.7271 21.8734 25.7069 21.9195C25.6887 21.9622 25.6672 22.0036 25.6424 22.0433C25.6191 22.0814 25.5934 22.118 25.5653 22.1529L25.5623 22.152C25.4546 22.277 25.3138 22.37 25.1555 22.4198Z" fill="black"/>
</svg>
