<svg width="32" height="32" viewBox="0 0 32 32" fill="none" xmlns="http://www.w3.org/2000/svg">
<path d="M32 5.66184V26.3375C32 27.3561 31.3677 28.2623 30.4154 28.5992L23.3569 31.9195L23.9971 23.2177V8.78164L23.3569 0.0798872L30.4154 3.40019C31.3677 3.73703 32 4.6433 32 5.66184Z" fill="black"/>
<path d="M3.99003 23.9363L23.9971 8.78164L23.9972 1.04466C23.9972 0.0838546 22.8111 -0.365268 22.1765 0.354932L0.515192 20.2013C-0.205065 20.867 -0.16425 22.0195 0.600823 22.633C0.600823 22.633 1.6604 23.6211 2.04374 23.8954C2.63275 24.3164 3.40662 24.3646 3.99003 23.9363Z" fill="black"/>
<path d="M3.99003 8.06325L23.9971 23.2177L23.9972 30.9549C23.9972 31.9157 22.8111 32.3648 22.1765 31.6446L0.515192 11.7982C-0.205065 11.1325 -0.16425 9.98004 0.600823 9.36651C0.600823 9.36651 1.6604 8.37844 2.04374 8.10415C2.63275 7.6831 3.40662 7.63498 3.99003 8.06325Z" fill="black"/>
</svg>
