<svg width="32" height="32" viewBox="0 0 32 32" fill="none" xmlns="http://www.w3.org/2000/svg">
<path d="M0 0V32H32V0H0ZM12.9316 23.6444L10.848 18.3431L8.77689 23.6444H5.22311L8.86933 15.9982L5.296 8.47822H8.80711L10.848 13.6871L12.8889 8.47822H16.4L12.8373 15.9982L16.4836 23.6444H12.9316ZM26.0267 23.6444H23.3493L23.2142 22.4978C22.6098 23.4009 21.8329 23.8524 20.88 23.8524C19.6996 23.8524 18.7982 23.4009 18.176 22.4978C17.5538 21.5947 17.2373 20.2684 17.2231 18.5191V17.6658C17.2231 15.8187 17.536 14.4409 18.16 13.5307C18.784 12.6204 19.6942 12.1653 20.8889 12.1653C21.7564 12.1653 22.48 12.5404 23.056 13.2907V7.64444H26.0249V23.6444H26.0267ZM21.744 14.6329C21.2018 14.6329 20.8071 14.8516 20.5564 15.2889C20.3058 15.7262 20.1813 16.5049 20.1813 17.6231V18.4036C20.1813 19.5147 20.2987 20.2916 20.5351 20.7324C20.7716 21.1733 21.1698 21.3938 21.7333 21.3938C22.3164 21.3938 22.7573 21.1342 23.056 20.6133V15.4667C22.7662 14.912 22.3289 14.6329 21.744 14.6329Z" fill="black"/>
</svg>
