<svg width="32" height="32" viewBox="0 0 32 32" fill="none" xmlns="http://www.w3.org/2000/svg">
<path d="M10.921 32C8.23165 32 6.05148 29.8198 6.05148 27.1304C6.05148 24.441 8.23165 22.2609 10.921 22.2609H15.7906V27.1304C15.7906 29.8198 13.6104 32 10.921 32ZM22 9.73913H17.1304V0H22C24.6894 0 26.8696 2.18017 26.8696 4.86957C26.8696 7.55896 24.6894 9.73913 22 9.73913ZM10.8696 9.73913H15.7391V0H10.8696C8.18017 0 6 2.18017 6 4.86957C6 7.55896 8.18017 9.73913 10.8696 9.73913ZM10.8696 20.8696H15.7391V11.1304H10.8696C8.18017 11.1304 6 13.3106 6 16C6 18.6894 8.18017 20.8696 10.8696 20.8696ZM21.3043 11.1304C20.1974 11.1304 19.1357 11.5702 18.3529 12.3529C17.5702 13.1357 17.1304 14.1974 17.1304 15.3043C17.1304 16.4113 17.5702 17.473 18.3529 18.2558C19.1357 19.0385 20.1974 19.4783 21.3043 19.4783C22.4113 19.4783 23.473 19.0385 24.2558 18.2558C25.0385 17.473 25.4783 16.4113 25.4783 15.3043C25.4783 14.1974 25.0385 13.1357 24.2558 12.3529C23.473 11.5702 22.4113 11.1304 21.3043 11.1304Z" fill="black"/>
</svg>
