<svg width="32" height="32" viewBox="0 0 32 32" fill="none" xmlns="http://www.w3.org/2000/svg">
<path d="M31.1603 13.9755L18.0245 0.839674C17.4674 0.279891 16.7337 0 16 0C15.2663 0 14.5326 0.279891 13.9755 0.839674L11.3777 3.4375L14.5924 6.65217C15.6603 6.02446 17.0516 6.16033 17.9674 7.07609C18.8832 7.99185 19.0163 9.38315 18.3886 10.4484L21.5489 13.6087C22.6168 12.981 24.0082 13.1168 24.9239 14.0326C26.0109 15.1196 26.0109 16.8804 24.9239 17.9674C23.837 19.0543 22.0761 19.0543 20.9891 17.9674C20.0734 17.0516 19.9375 15.6603 20.5652 14.5924L17.4049 11.4321C17.1793 11.5652 16.9429 11.663 16.6957 11.7255V20.2717C17.894 20.5815 18.7826 21.6603 18.7826 22.9565C18.7826 24.4946 17.538 25.7391 16 25.7391C14.462 25.7391 13.2174 24.4946 13.2174 22.9565C13.2174 21.6603 14.106 20.5815 15.3043 20.2717V11.7255C14.8397 11.606 14.3967 11.375 14.0326 11.0109C13.1168 10.0951 12.9837 8.7038 13.6114 7.63859L10.394 4.4212L0.839674 13.9755C-0.279891 15.0924 -0.279891 16.9076 0.839674 18.0245L13.9755 31.1603C14.5326 31.7201 15.2663 32 16 32C16.7337 32 17.4674 31.7201 18.0245 31.1603L31.1603 18.0245C32.2799 16.9076 32.2799 15.0924 31.1603 13.9755Z" fill="black"/>
</svg>
