<svg width="32" height="32" viewBox="0 0 32 32" fill="none" xmlns="http://www.w3.org/2000/svg">
<path d="M3.906 17.0953L0.515193 20.2029C-0.205065 20.8687 -0.16425 22.0214 0.600823 22.635C0.600823 22.635 1.6604 23.6233 2.04374 23.8976C2.63275 24.3188 3.40663 24.3669 3.99003 23.9385L8.03708 20.8719L3.906 17.0953Z" fill="black"/>
<path d="M20.2711 2.11032C17.0884 5.02137 9.33999 12.1149 9.33999 12.1149L5.10088 15.9998L5.09208 16.0078L9.33599 19.8879L9.33999 19.8855L14.4682 15.9998L21.5964 10.5996L21.6092 2.70632C21.61 2.00844 20.7857 1.64025 20.2711 2.11032Z" fill="black"/>
<path d="M20.2566 29.869C20.7704 30.3382 21.5963 29.9732 21.5963 29.2762V21.4013L14.4682 15.9998L9.33999 12.1149L3.99003 8.06214C3.40663 7.63378 2.63275 7.68191 2.04374 8.10305C1.6604 8.37739 0.600823 9.36565 0.600823 9.36565C-0.16425 9.97931 -0.205065 11.132 0.515192 11.7978L5.10088 15.9998L9.33999 19.8855L20.2566 29.869Z" fill="black"/>
<path d="M30.4154 3.39818L23.3569 0.0772233L23.3577 0.0844427C22.9752 -0.0759901 22.5038 -0.0190364 22.1765 0.352366L22.1341 0.390869C22.1501 0.404506 22.1669 0.415737 22.1813 0.430978C22.98 0.0563671 23.9971 0.611464 23.9971 1.59412V30.3966C23.9971 31.4065 22.9215 31.9673 22.1124 31.5237C22.0988 31.5333 22.0852 31.5429 22.0716 31.5517L22.1773 31.648C22.5046 32.0194 22.976 32.0755 23.3585 31.9159L23.3569 31.9231L30.4154 28.6022C31.3678 28.2653 32 27.3588 32 26.3401V5.66028C32 4.64154 31.3678 3.73509 30.4154 3.39818Z" fill="black"/>
</svg>
