<svg xmlns="http://www.w3.org/2000/svg" width="32" height="32" viewBox="0 0 32 32">
  <path id="github" d="M16,0A16.063,16.063,0,0,0,0,16,16.606,16.606,0,0,0,12.25,32V26.707a3.853,3.853,0,0,1-4.319-1.921c-.364-.613-1.008-1.278-1.68-1.229l-.165-1.868a3.856,3.856,0,0,1,3.457,2.139,2.073,2.073,0,0,0,1.2,1.029,2.52,2.52,0,0,0,1.574-.137,4.395,4.395,0,0,1,1.1-2.255h0c-4.168-.622-5.828-2.833-6.488-4.578a7.341,7.341,0,0,1,1.14-7.041.251.251,0,0,0,.063-.194,6.137,6.137,0,0,1,.187-4.1c.817.242.95-.243,3.551,1.337l.449.27c.188.112.129.048.317.034A13.579,13.579,0,0,1,16,7.723a13.637,13.637,0,0,1,3.4.484l.146.015c-.013,0,.04-.009.127-.062,3.248-1.968,3.132-1.324,4-1.608a6.242,6.242,0,0,1,.182,4.1c-.094.291,2.816,2.956,1.2,7.235-.659,1.746-2.32,3.957-6.487,4.578h0a4.114,4.114,0,0,1,1.173,2.927V32A16.606,16.606,0,0,0,32,16,16.062,16.062,0,0,0,16,0Zm0,0" fill="#fff"/>
</svg>
