<svg width="32" height="32" viewBox="0 0 32 32" fill="none" xmlns="http://www.w3.org/2000/svg">
<g clip-path="url(#clip0)">
<path d="M17.3467 0.110776C15.5413 0.0785557 13.776 0.517555 12.2507 1.61438C7.59333 4.53836 6.48133 10.9851 9.36666 16.3014C9.95599 9.85736 14.6147 4.53836 20.78 3.40931C23.6667 3.07637 25.7667 3.40931 25.7667 3.40931C23.468 1.54323 20.352 0.167161 17.3467 0.110776ZM10.352 1.34991C5.89066 2.8119 1.23199 6.9307 1.82266 11.5825C1.82266 16.8988 7.06933 21.0203 12.2507 22.7481C8.18399 18.0292 5.29866 12.1826 7.85733 5.73587C9.03999 3.01059 10.3507 1.34991 10.3507 1.34991H10.352ZM23.72 4.3786C20.0013 4.33161 14.7627 6.20172 12.8427 9.79024C18.6827 7.46368 26.1627 7.99665 29.704 14.3104C31.2147 16.9015 31.804 18.9609 31.804 18.9609C32.5267 13.9104 31.344 7.46502 26.7533 5.07133C26.0307 4.62293 24.96 4.39471 23.72 4.3786V4.3786ZM20.3907 9.2586C25.048 13.9762 27.9333 21.6204 23.932 27.5341C22.1613 30.1265 20.5853 31.6543 20.5853 31.6543H20.588C25.6387 30.3923 30.8187 25.6748 30.8187 20.4242C30.8187 16.9028 27.2133 10.5877 20.392 9.2586H20.3907ZM0.707993 12.8471C-1.06267 17.4989 0.641327 23.3455 4.11866 25.7392C8.77599 29.2619 15.1413 27.5328 19.7987 23.4126C13.4347 24.6101 6.47999 23.4126 2.93999 17.6318C1.36533 14.9065 0.70666 12.8471 0.70666 12.8471H0.707993ZM24.324 17.1002C22.0267 23.5442 16.8453 28.0658 10.1547 28.3987C7.07199 28.1987 4.90666 27.5341 4.90666 27.5341C8.11999 31.5214 13.9587 33.1834 18.616 31.3898C21.7653 30.1278 24.1267 26.6695 24.6507 22.7481C24.9787 20.7545 24.5867 19.0925 24.324 17.1002Z" fill="white"/>
</g>
<defs>
<clipPath id="clip0">
<rect width="32" height="32" fill="white"/>
</clipPath>
</defs>
</svg>
