<svg width="32" height="32" viewBox="0 0 32 32" fill="none" xmlns="http://www.w3.org/2000/svg">
<path d="M19.625 9.5708C18.7365 9.5708 17.8721 9.74408 17.1063 10.0396C16.8097 10.1548 16.7324 10.2737 16.7292 10.5041V22.9958C16.7324 23.2369 16.9174 23.4234 17.1521 23.4479C17.1617 23.449 28.0625 23.4479 28.0625 23.4479C30.2364 23.4479 31.9979 21.7051 31.9979 19.5312C31.999 17.3563 30.2385 15.5937 28.0646 15.5937C27.5259 15.5937 27.0099 15.7026 26.5417 15.9C26.2291 12.3533 23.2527 9.5708 19.625 9.5708ZM15.925 10.4916C15.8215 10.4916 15.7257 10.5298 15.6521 10.5916C15.5561 10.6706 15.4938 10.7896 15.4917 10.9229V10.9687L15.3146 19.7916L15.4042 21.4208L15.4917 23.0083C15.4949 23.243 15.6903 23.4375 15.9271 23.4375C16.1604 23.4375 16.355 23.2463 16.3604 23.0104V23.0062L16.5521 19.7916L16.3604 10.925C16.3562 10.7671 16.2706 10.6299 16.1458 10.5541C16.0808 10.5147 16.005 10.4916 15.925 10.4916ZM14.5813 11.2562C14.5013 11.2562 14.4265 11.2792 14.3625 11.3208C14.2516 11.3923 14.1771 11.5185 14.175 11.6604V11.7375L14.0229 19.7875C14.0229 19.7928 14.175 23.0562 14.175 23.0562C14.175 23.0616 14.175 23.0655 14.175 23.0708C14.1803 23.1615 14.2154 23.2443 14.2708 23.3104C14.3455 23.4 14.4585 23.4583 14.5833 23.4583C14.6932 23.4583 14.7941 23.4142 14.8667 23.3396C14.9392 23.267 14.9864 23.1641 14.9875 23.0521L15.0042 22.7291L15.1583 19.7896L14.9875 11.6583C14.9843 11.5207 14.9129 11.3975 14.8063 11.325C14.7412 11.2812 14.6634 11.2562 14.5813 11.2562ZM10.5625 12.1896C10.3854 12.1896 10.2428 12.3322 10.2375 12.5125L10.0354 19.7875L10.2375 23.1271C10.2428 23.3063 10.3854 23.4479 10.5625 23.4479C10.7385 23.4479 10.879 23.3063 10.8854 23.125L11.1146 19.7875L10.8854 12.5125C10.879 12.3311 10.7385 12.1896 10.5625 12.1896ZM11.8917 12.3479C11.6986 12.3479 11.5449 12.5016 11.5396 12.6979L11.3542 19.7896L11.5396 23.0958C11.5439 23.2899 11.6976 23.4437 11.8896 23.4437C12.0809 23.4437 12.2353 23.289 12.2417 23.0937L12.45 19.7875L12.2417 12.6958C12.2374 12.5006 12.0837 12.3479 11.8917 12.3479ZM9.24167 12.4541C9.0806 12.4541 8.95117 12.5826 8.94583 12.7479L8.72917 19.7875L8.94583 23.1479C8.95223 23.3122 9.0806 23.4416 9.24167 23.4416C9.401 23.4416 9.53218 23.3143 9.53958 23.15V23.1479L9.78542 19.7896L9.53958 12.7479C9.53318 12.5826 9.40167 12.4541 9.24167 12.4541ZM13.2292 12.5791C13.0212 12.5791 12.8553 12.7461 12.8521 12.9562L12.6833 19.7875L12.8521 23.075C12.8564 23.284 13.0201 23.45 13.2292 23.45C13.4358 23.45 13.6019 23.2862 13.6083 23.0771V23.0729L13.7979 19.7896L13.6083 12.9562C13.6051 12.745 13.4372 12.5791 13.2292 12.5791ZM7.91458 13.0416C7.76952 13.0416 7.65015 13.159 7.64375 13.3083L7.41042 19.8041L7.64375 23.2021C7.65015 23.3503 7.76952 23.4666 7.91458 23.4666C8.05792 23.4666 8.17698 23.3483 8.18333 23.2L8.44792 19.8062L8.18333 13.3083C8.17693 13.1579 8.05858 13.0416 7.91458 13.0416ZM6.63542 14.2583C6.50635 14.2583 6.40015 14.3624 6.39375 14.4979L6.14375 19.7854L6.39375 23.2021C6.40122 23.3354 6.50635 23.4416 6.63542 23.4416C6.76342 23.4416 6.86962 23.3365 6.87708 23.2021L7.16042 19.7854L6.87708 14.4979C6.86962 14.3646 6.76342 14.2583 6.63542 14.2583ZM4.07083 16.0979C3.97163 16.0979 3.8908 16.1756 3.88333 16.2812L3.60208 19.7854L3.88333 23.1729C3.89187 23.2774 3.97163 23.3583 4.07083 23.3583C4.16897 23.3583 4.24878 23.2785 4.25625 23.1729L4.57917 19.7854L4.25625 16.2812C4.24772 16.1767 4.16897 16.0979 4.07083 16.0979ZM2.80417 16.2166C2.71883 16.2166 2.65228 16.2822 2.64375 16.3729L2.34375 19.7833L2.64375 23.0687C2.65122 23.1594 2.7199 23.225 2.80417 23.225C2.88737 23.225 2.9529 23.1594 2.9625 23.0687L3.30208 19.7833L2.9625 16.3729C2.95183 16.2833 2.88737 16.2166 2.80417 16.2166ZM5.34792 16.3229C5.23272 16.3229 5.13872 16.4138 5.13125 16.5354L4.86667 19.7854L5.13125 23.2021C5.13872 23.3215 5.23272 23.4125 5.34792 23.4125C5.46205 23.4125 5.55397 23.3237 5.5625 23.2021L5.86458 19.7854L5.5625 16.5333C5.55503 16.4128 5.46205 16.3229 5.34792 16.3229ZM1.54375 16.7812C1.47548 16.7812 1.42002 16.8357 1.41042 16.9104L1.09583 19.7833L1.41042 22.5937C1.41895 22.6684 1.47548 22.7229 1.54375 22.7229C1.61095 22.7229 1.66535 22.6695 1.67708 22.5937L2.03542 19.7833L1.67708 16.9104C1.66642 16.8347 1.61202 16.7812 1.54375 16.7812ZM0.3625 17.8812C0.2953 17.8812 0.241867 17.9337 0.233333 18.0062L0 19.7833L0.233333 21.5312C0.241867 21.6048 0.296367 21.6562 0.3625 21.6562C0.427567 21.6562 0.478917 21.6038 0.489583 21.5312L0.766667 19.7833L0.489583 18.0062C0.479983 17.9337 0.427567 17.8812 0.3625 17.8812Z" fill="white"/>
</svg>
